<?xml version="1.0" encoding="utf-8"?>
<!-- Generator: Adobe Illustrator 19.2.1, SVG Export Plug-In . SVG Version: 6.00 Build 0)  -->
<svg version="1.1" id="Layer_1" xmlns="http://www.w3.org/2000/svg" xmlns:xlink="http://www.w3.org/1999/xlink" x="0px" y="0px"
	 viewBox="0 0 159 32" style="enable-background:new 0 0 159 32;" xml:space="preserve">
<style type="text/css">
	.st0{fill:#FFC427;}
</style>
<path class="st0" d="M7.6,27.2H5.5v-5.5h2.1V27.2z M12.8,10.4L9.5,6.9H0V32h9.5l3.9-3.6v-6.6l-3.1-2.4l2.6-2.5L12.8,10.4L12.8,10.4z
	 M5.4,11.9h2.2V17H5.4V11.9z"/>
<path class="st0" d="M80.4,27.2h-2.1v-5.5h2.1V27.2z M85.7,10.4l-3.4-3.5h-9.5V32h9.5l3.9-3.6v-6.6l-3.1-2.5l2.6-2.4V10.4z
	 M80.4,16.9h-2.3v-5.1h2.3V16.9z"/>
<polyline class="st0" points="14.6,6.9 14.6,32 25.1,32 25.1,27.2 20.1,27.2 20.1,6.9 14.6,6.9 "/>
<polyline class="st0" points="116.8,6.9 116.8,11.8 119.9,11.8 119.9,32 125.5,32 125.5,11.8 128.6,11.8 128.6,6.9 116.8,6.9 "/>
<polyline class="st0" points="65.3,6.9 61.8,17 61.8,6.9 56.4,6.9 56.4,32 61.8,32 61.8,21 66.3,32 71.7,32 66.3,18.4 70.8,6.9 
	65.3,6.9 "/>
<path class="st0" d="M30.3,6.9l-4,3.7v17.7l4,3.7h5.4l3.8-3.7V10.6l-3.8-3.7L30.3,6.9 M32,11.8h2.1v15.4H32V11.8z"/>
<polyline class="st0" points="102.7,10.7 102.7,18.3 106.1,21.8 110.2,22.1 110.2,27.1 108.1,27.1 108.1,23.9 102.7,23.9 
	102.7,28.3 106.5,32 112,32 115.7,28.3 115.7,20.8 112.2,17.2 108.1,16.9 108.1,11.9 110.3,11.9 110.3,15.1 115.7,15.1 115.7,10.7 
	112.1,6.9 106.5,6.9 102.7,10.7 "/>
<polyline class="st0" points="95.4,6.9 95.4,27.2 93.1,27.2 93.1,6.9 87.7,6.9 87.7,28.3 91.6,32 97.1,32 100.9,28.3 100.9,6.9 
	95.4,6.9 "/>
<polyline class="st0" points="41.4,10.6 41.4,28.3 45.3,32 50.9,32 54.6,28.3 54.6,21.2 49,21.2 49,27.2 46.9,27.2 46.9,11.8 
	49,11.8 49,16.6 54.6,16.6 54.6,10.6 50.9,6.9 45.3,6.9 41.4,10.6 "/>
<polyline class="st0" points="129.9,6.9 129.9,32 140.2,32 140.2,27.3 135.4,27.3 135.4,21.1 139.2,21.1 139.2,16.5 135.2,16.5 
	135.2,11.9 140.2,11.9 140.2,6.9 129.9,6.9 "/>
<path class="st0" d="M154.6,10.4l-3.3-3.6h-9.4v25.1h5.4V21.6h2.1v10.3h5.7V21.6l-3.1-2.5l2.6-2.4V10.4 M149.4,16.9h-2.2v-5.1h2.2
	V16.9z"/>
<path class="st0" d="M153.1,4c0-1.6,1.3-2.9,2.9-2.9c1.6,0,2.9,1.3,2.9,2.9s-1.3,2.9-2.9,2.9C154.4,6.9,153.1,5.6,153.1,4L153.1,4z
	 M158.6,3.9c0-1.4-1.1-2.5-2.6-2.5c-1.4,0-2.6,1.1-2.6,2.6c0,1.4,1.1,2.6,2.6,2.6C157.4,6.5,158.6,5.4,158.6,3.9L158.6,3.9z
	 M157.5,5.6H157l-0.9-1.5h-0.7v1.5H155V2.3h1.4c0.3,0,0.5,0,0.8,0.2c0.2,0.1,0.4,0.4,0.4,0.7c0,0.6-0.4,0.9-1,0.9L157.5,5.6L156,3.8
	c0.5,0,1.2,0.1,1.2-0.6c0-0.5-0.4-0.6-0.8-0.6h-0.9v1.2h0.6L157.5,5.6L157.5,5.6z"/>
</svg>
